HIERARCHY
ROOT hip
{
	OFFSET 0.000000 0.000000 0.000000 
	CHANNELS 6 Xposition Yposition Zposition Zrotation Yrotation Xrotation
	JOINT abdomen
	{
		OFFSET 0.000000 20.688101 -0.731520 
		CHANNELS 3 Zrotation Xrotation Yrotation
		JOINT chest
		{
			OFFSET 0.000000 11.704300 -0.487680 
			CHANNELS 3 Zrotation Xrotation Yrotation
			JOINT neck
			{
				OFFSET 0.000000 22.189400 -2.194560 
				CHANNELS 3 Zrotation Xrotation Yrotation
				JOINT head
				{
					OFFSET -0.243840 7.071330 1.219200 
					CHANNELS 3 Zrotation Xrotation Yrotation
					End Site
					{
						OFFSET 1.000000 0.000000 0.000000 
					}
				}
			}
			JOINT rCollar
			{
				OFFSET -2.682240 19.263399 -4.876800 
				CHANNELS 3 Zrotation Xrotation Yrotation
				JOINT rShldr
				{
					OFFSET -8.778240 -1.950730 1.463040 
					CHANNELS 3 Zrotation Xrotation Yrotation
					JOINT rForeArm
					{
						OFFSET -28.174200 -1.711500 0.487680 
						CHANNELS 3 Zrotation Xrotation Yrotation
						JOINT rHand
						{
							OFFSET -22.587900 0.773209 7.071360 
							CHANNELS 3 Zrotation Xrotation Yrotation
							End Site
							{
								OFFSET -1.782710 -1.182140 1.430490 
							}
						}
					}
				}
			}
			JOINT lCollar
			{
				OFFSET 2.682240 19.263399 -4.876800 
				CHANNELS 3 Zrotation Xrotation Yrotation
				JOINT lShldr
				{
					OFFSET 8.778240 -1.950730 1.463040 
					CHANNELS 3 Zrotation Xrotation Yrotation
					JOINT lForeArm
					{
						OFFSET 28.174200 -1.711500 0.487680 
						CHANNELS 3 Zrotation Xrotation Yrotation
						JOINT lHand
						{
							OFFSET 22.587900 0.773209 7.071360 
							CHANNELS 3 Zrotation Xrotation Yrotation
							End Site
							{
								OFFSET 1.782710 -1.182140 1.430490 
							}
						}
					}
				}
			}
		}
	}
	JOINT rButtock
	{
		OFFSET -8.778240 4.350840 1.219200 
		CHANNELS 3 Zrotation Xrotation Yrotation
		JOINT rThigh
		{
			OFFSET 0.000000 -1.706870 -2.194560 
			CHANNELS 3 Zrotation Xrotation Yrotation
			JOINT rShin
			{
				OFFSET 0.000000 -36.819901 0.731520 
				CHANNELS 3 Zrotation Xrotation Yrotation
				JOINT rFoot
				{
					OFFSET 0.731520 -45.110401 -5.120640 
					CHANNELS 3 Zrotation Xrotation Yrotation
					End Site
					{
						OFFSET -1.122100 -3.699640 12.103000 
					}
				}
			}
		}
	}
	JOINT lButtock
	{
		OFFSET 8.778240 4.350840 1.219200 
		CHANNELS 3 Zrotation Xrotation Yrotation
		JOINT lThigh
		{
			OFFSET 0.000000 -1.706870 -2.194560 
			CHANNELS 3 Zrotation Xrotation Yrotation
			JOINT lShin
			{
				OFFSET 0.000000 -36.819901 0.731520 
				CHANNELS 3 Zrotation Xrotation Yrotation
				JOINT lFoot
				{
					OFFSET -0.731520 -45.110401 -5.120640 
					CHANNELS 3 Zrotation Xrotation Yrotation
					End Site
					{
						OFFSET 1.122100 -3.699640 12.103000 
					}
				}
			}
		}
	}
}
MOTION
Frames: 10
Frame Time: 0.008333
-114.589996 85.096603 -5.935720 0.000000 0.000000 0.000000 0.283893 -0.002914 0.008161 0.078459 -0.004733 0.013594 0.000000 0.000000 -0.000000 0.000000 0.000000 -0.000000 0.000000 -0.000000 0.000000 0.000000 0.000000 0.000000 0.000000 -0.000000 -0.000000 0.000000 0.000000 0.000000 0.000000 -0.000000 -0.000000 0.000000 0.000000 -0.000000 0.000000 0.000000 -0.000000 0.000000 -0.000000 0.000000 -0.000000 0.000000 -0.000000 0.668915 -3.858530 -0.057248 -0.003418 1.437940 -0.027440 -0.455258 2.421050 0.100330 0.000000 0.000000 0.000000 -0.234822 -2.724190 0.029939 0.006626 -0.616661 0.057973 0.449436 3.341270 -0.117941 
-108.972000 83.409897 -12.934600 -175.238007 78.297501 -169.309006 0.669370 -0.203486 0.205842 0.424431 -0.884583 0.088159 -0.842319 -1.876830 -0.684291 1.100930 3.028420 -0.910071 0.000000 0.000000 0.000000 20.497900 7.460210 -1.333420 -4.733860 -2.264190 7.266840 0.001536 0.869654 0.122171 0.000000 0.000000 0.000000 -22.163700 9.690250 -0.118487 4.558080 -2.143080 -7.039430 -0.081745 -6.349350 0.872676 -0.000000 0.000000 -0.000000 1.398850 -6.611570 6.510260 0.056262 6.788740 0.177961 -2.267040 -3.453250 -12.175900 0.000000 0.000000 0.000000 0.498810 -7.460890 -5.487530 -0.008599 6.434380 -0.079373 0.973693 -0.098314 5.196740 
-108.970001 83.409698 -12.942600 -175.343994 78.270798 -169.429993 1.077890 -0.413672 0.414371 0.792690 -1.814940 0.166772 -1.786520 -3.855530 -1.415130 2.377620 6.221640 -1.889470 0.000000 0.000000 0.000000 42.556301 15.331800 -2.818700 -9.120840 -4.537720 14.987800 -0.000877 1.791240 0.251733 0.000000 0.000000 0.000000 -45.547001 19.935801 -0.254704 8.810290 -4.302030 -14.515000 0.047201 -13.056700 1.831600 -0.000000 0.000000 -0.000000 2.858070 -9.345620 13.546700 0.076708 12.445800 0.402041 -6.859200 -8.891200 -25.434401 0.000000 0.000000 0.000000 0.265944 -12.292800 -11.491400 0.013027 13.887600 -0.230028 2.215860 -3.650820 10.841100 
-108.968002 83.411301 -12.949800 -175.459000 78.252098 -169.557007 1.444480 -0.604601 0.601234 1.123250 -2.644260 0.237510 -2.661970 -5.627260 -2.061710 3.594410 9.076020 -2.760990 0.000000 0.000000 0.000000 62.606300 22.330099 -4.288520 -12.515900 -6.356470 21.925100 -0.006527 2.608910 0.366851 0.000000 0.000000 0.000000 -66.356102 29.070200 -0.400893 12.126800 -6.041890 -21.226999 0.363314 -19.029900 2.752500 -0.000000 0.000000 -0.000000 4.739360 -11.531900 19.933500 0.055768 17.489500 0.613357 -13.029500 -12.331100 -37.674599 0.000000 0.000000 0.000000 -0.826549 -16.324699 -17.091499 0.067584 20.536100 -0.376482 3.921060 -6.712950 15.937800 
-108.969002 83.411797 -12.956500 -175.606003 78.241898 -169.697998 1.703390 -0.747413 0.733902 1.354750 -3.221030 0.288354 -3.268970 -6.884760 -2.489160 4.450930 11.092500 -3.333150 0.000000 0.000000 0.000000 76.829201 27.192600 -5.447840 -14.607300 -7.455110 26.784201 -0.012316 3.166850 0.445529 0.000000 0.000000 0.000000 -80.828003 35.427601 -0.530285 14.184400 -7.104210 -25.925900 0.708062 -23.184500 3.450770 -0.000000 0.000000 -0.000000 6.361660 -12.870000 24.454500 0.017672 21.000799 0.769870 -18.241301 -13.614500 -46.376999 0.000000 0.000000 0.000000 -2.081250 -18.919600 -21.171200 0.127798 25.172800 -0.490444 5.463470 -8.819750 19.534800 
-108.976997 83.409203 -12.958100 -175.675003 78.237801 -169.731995 1.809840 -0.821896 0.790765 1.447970 -3.446740 0.311799 -3.459470 -7.425170 -2.603340 4.700060 11.940800 -3.462410 0.000000 0.000000 0.000000 82.473701 29.105101 -5.964100 -15.357100 -7.830700 28.666300 -0.014739 3.356230 0.472269 0.000000 0.000000 0.000000 -86.488098 37.891800 -0.601693 14.925200 -7.470840 -27.745100 0.873503 -24.807699 3.740300 -0.000000 0.000000 -0.000000 7.071120 -13.355800 26.241100 -0.002174 22.368299 0.832814 -20.410101 -13.812200 -49.787601 0.000000 0.000000 0.000000 -2.671560 -19.891001 -22.805500 0.156662 26.990999 -0.541537 6.213320 -9.834930 20.923201 
-108.976997 83.404999 -12.953200 -175.621994 78.241501 -169.634995 1.807080 -0.847625 0.793471 1.441780 -3.421590 0.315603 -3.342690 -7.453900 -2.492090 4.494730 11.956500 -3.269560 -0.000000 -0.000000 0.000000 81.875702 28.922300 -5.950940 -15.251500 -7.770120 28.406200 -0.014004 3.282610 0.461881 -0.000000 -0.000000 0.000000 -85.872902 37.575600 -0.617806 14.820800 -7.412050 -27.493401 0.854172 -24.626699 3.707500 -0.000000 0.000000 -0.000000 7.008110 -13.326500 26.046101 0.001506 22.204599 0.823881 -20.128599 -13.768600 -49.404099 0.000000 0.000000 0.000000 -2.580350 -19.816200 -22.612101 0.152587 26.796200 -0.541804 6.255770 -10.132800 20.702200 
-108.971001 83.403397 -12.948300 -175.522995 78.234703 -169.518997 1.761300 -0.855430 0.774378 1.391710 -3.292060 0.310596 -3.099590 -7.276800 -2.291570 4.121990 11.640700 -2.952590 -0.000000 -0.000000 0.000000 78.776901 27.896400 -5.715270 -14.801900 -7.533700 27.289499 -0.012157 3.111700 0.437766 -0.000000 -0.000000 0.000000 -82.745598 36.156300 -0.607049 14.377900 -7.182800 -26.416000 0.760942 -23.721800 3.545490 -0.000000 0.000000 -0.000000 6.636670 -13.090600 25.056299 0.013978 21.426901 0.786510 -18.879200 -13.636100 -47.502300 0.000000 0.000000 0.000000 -2.217180 -19.323500 -21.698799 0.135264 25.800200 -0.520764 5.983340 -10.083100 19.843500 
-108.964996 83.401199 -12.938700 -175.311996 78.223000 -169.294998 1.738800 -0.876141 0.765848 1.353390 -3.204660 0.307611 -2.910470 -7.199840 -2.137970 3.865550 11.495500 -2.709150 -0.000000 -0.000000 0.000000 76.929001 27.278099 -5.570000 -14.518000 -7.380060 26.602100 -0.011119 3.009200 0.423309 -0.000000 -0.000000 0.000000 -80.865303 35.311001 -0.600412 14.101300 -7.036540 -25.758200 0.707310 -23.173100 3.448860 -0.000000 0.000000 -0.000000 6.427990 -12.951200 24.460800 0.020173 20.952499 0.764312 -18.150400 -13.547500 -46.356201 0.000000 0.000000 0.000000 -2.002230 -19.036301 -21.178301 0.125413 25.214701 -0.508460 5.819390 -10.044700 19.328501 
-108.964996 83.396500 -12.925400 -175.042999 78.203796 -168.981995 1.758160 -0.920654 0.773735 1.326790 -3.180570 0.307595 -2.796590 -7.268370 -2.048290 3.773010 11.591700 -2.563940 -0.000000 -0.000000 -0.000000 76.949898 27.268801 -5.551920 -14.492300 -7.358560 26.549801 -0.011150 3.013150 0.423866 -0.000000 -0.000000 -0.000000 -80.851196 35.324200 -0.603683 14.085000 -7.023280 -25.725300 0.705970 -23.152599 3.445460 -0.000000 0.000000 -0.000000 6.453100 -12.971000 24.452700 0.017854 20.929399 0.764071 -18.174400 -13.591800 -46.342098 0.000000 0.000000 0.000000 -1.986650 -19.075899 -21.246901 0.125585 25.248400 -0.509039 5.822220 -10.045200 19.330799 
